<svg width="189" height="47" viewBox="0 0 189 47" fill="none" xmlns="http://www.w3.org/2000/svg">
<path d="M0.844727 6.67114L30.3868 23.9211V35.4211L10.6921 23.9211V46.9212L0.844727 41.1712V6.67114Z" fill="#2891F9"/>
<path d="M10.6924 46.9211V23.9211L20.5397 29.6711V41.1711L10.6924 46.9211Z" fill="#2BBDF7"/>
<path d="M0.844727 6.67115L10.6921 0.921143L40.2341 18.1712L30.3868 23.9212L0.844727 6.67115Z" fill="#2B6DEF"/>
<path d="M30.3867 23.9211L40.2341 18.1711V29.6711L30.3867 35.4211V23.9211Z" fill="#2BBDF7"/>
<path d="M40.2344 6.67114V41.1712L50.0817 46.9212V12.4211L40.2344 6.67114Z" fill="#2891F9"/>
<path d="M59.9284 6.67114L50.0811 12.4211V46.9212L59.9284 41.1712V6.67114Z" fill="#2BBDF7"/>
<path d="M50.0817 0.921143L59.9291 6.67114L50.0817 12.4211L40.2344 6.67114L50.0817 0.921143Z" fill="#2B6DEF"/>
<path d="M128.72 15.5524H133.7V38.7801H128.72V35.5066C126.947 38.04 123.909 39.691 120.701 39.4917C117.663 39.4917 114.821 38.2108 112.683 36.0474C110.544 33.6848 109.306 30.6105 109.306 27.337C109.138 24.0635 110.375 20.9892 112.514 18.6266C114.652 16.264 117.494 15.0115 120.532 15.1823C123.74 15.0115 126.581 16.4632 128.551 18.9967L128.72 15.5524ZM121.601 34.6241C123.571 34.6241 125.343 33.9125 126.778 32.6316C128.213 31.1798 128.917 29.1873 128.917 27.3655C128.917 25.3729 128.213 23.5511 126.778 22.0994C123.937 19.1959 119.294 19.1959 116.425 22.0994C114.99 23.5511 114.286 25.3729 114.286 27.3655C114.286 29.358 114.99 31.3506 116.425 32.6316C117.691 33.884 119.632 34.6241 121.601 34.6241Z" fill="white"/>
<path d="M152.635 20.4484H146.924V31.5214C146.924 34.4249 148.893 34.4249 152.635 34.2541V38.7801C145.151 39.691 142.112 37.6984 142.112 31.5214V20.4484H137.836V15.5524H142.112V9.03381H147.092V15.5524H152.804L152.635 20.4484Z" fill="white"/>
<path d="M157.445 11.1972C156.207 9.91622 156.207 7.92365 157.445 6.84196C158.683 5.56102 160.484 5.56102 161.722 6.67117C161.722 6.67117 161.722 6.67117 161.89 6.84196C163.128 8.1229 163.128 10.1155 161.89 11.368C160.653 12.4781 158.683 12.4781 157.445 11.1972ZM157.079 38.7801V15.5524H162.059V38.7801H157.079Z" fill="white"/>
<path d="M169.937 35.8766C167.63 33.514 166.364 30.4398 166.561 27.1662C166.392 23.8927 167.63 20.8185 169.937 18.4558C172.244 16.0932 175.283 14.8407 178.49 15.0115C182.767 14.8407 186.706 17.1749 188.647 20.9893L184.371 23.5227C183.302 21.1601 180.994 19.7083 178.49 19.9076C176.521 19.9076 174.748 20.6192 173.51 21.9001C172.272 23.3519 171.541 25.1737 171.541 27.1662C171.541 29.1588 172.244 30.9806 173.51 32.4323C174.945 33.8841 176.718 34.5957 178.49 34.4249C180.994 34.4249 183.302 33.144 184.568 30.8098L188.844 33.3432C186.875 37.1576 182.795 39.5202 178.49 39.3209C175.283 39.3209 172.244 38.0685 169.937 35.8766Z" fill="white"/>
<path d="M99.6552 9.03381L90.033 25.3729L80.4107 9.03381H74.6992V38.7801H80.0449V18.2851L88.598 32.9732H91.2709L100.021 18.4558V38.7801H105.367V9.03381H99.6552Z" fill="white"/>
</svg>
