<svg width="148" height="112" viewBox="0 0 148 112" fill="none" xmlns="http://www.w3.org/2000/svg">
<path d="M0 12C0 5.37258 5.37258 0 12 0H148C148 61.8559 97.8559 112 36 112H0V12Z" fill="#D5E2FC"/>
<mask id="mask0" mask-type="alpha" maskUnits="userSpaceOnUse" x="0" y="0" width="148" height="112">
<path d="M0 12C0 5.37258 5.37258 0 12 0H148C148 61.8559 97.8559 112 36 112H0V12Z" fill="#D5E2FC"/>
</mask>
<g mask="url(#mask0)">
<path d="M16.6053 113.357L16.6053 151.101L-0.103516 141.461L-0.103518 103.717L16.6053 113.357ZM15.9118 149.841L15.9118 113.736L0.590057 104.914L0.590058 141.02L15.9118 149.841Z" fill="#AAC5F9"/>
<path d="M48.762 76.4328L48.762 95.2732L48.5728 95.3993L32.3684 104.725L16.0378 95.2732L16.0378 76.4328L16.227 76.3068L32.3684 66.9811L48.762 76.4328ZM48.0053 94.8952L48.0053 76.8109L32.3684 67.8002L16.7314 76.8109L16.7314 94.8952L32.3684 103.906L48.0053 94.8952Z" fill="#AAC5F9"/>
<path d="M48.5729 94.7692L48.1946 95.3993L32.3684 86.2626L16.5423 95.3993L16.2271 94.7692L32.3684 85.4435L48.5729 94.7692Z" fill="#AAC5F9"/>
<path d="M32.0532 67.3592L32.0532 85.8215L32.7468 85.8215L32.7468 67.3592L32.0532 67.3592Z" fill="#AAC5F9"/>
<path d="M16.6053 57.9075L16.6053 95.6514L-0.103516 86.0106L-0.103518 48.2667L16.6053 57.9075ZM15.9118 94.4542L15.9118 58.3485L0.590057 49.5269L0.590058 85.6325L15.9118 94.4542Z" fill="#AAC5F9"/>
<path d="M48.762 94.4542L48.762 113.736L48.5728 113.862L16.0378 132.639L16.0378 113.169L16.227 113.043L48.762 94.4542ZM48.0053 113.358L48.0053 95.7144L16.6684 113.61L16.6684 131.442L48.0053 113.358Z" fill="#AAC5F9"/>
<path d="M33.0619 104.284L16.0378 113.925L-16.6233 95.2733L0.274722 85.4435L0.463879 85.5695L33.0619 104.284ZM16.1008 113.169L31.6748 104.347L0.274722 86.2626L-15.2361 95.2103L16.1008 113.169Z" fill="#AAC5F9"/>
<path d="M48.762 20.9826L48.762 39.886L48.5728 40.0121L32.3684 49.3378L16.0378 39.886L16.0378 20.9826L16.227 20.8566L32.4314 11.5309L48.762 20.9826ZM48.0053 39.4449L48.0053 21.3607L32.3684 12.35L16.7314 21.3607L16.7314 39.445L32.3684 48.4556L48.0053 39.4449Z" fill="#AAC5F9"/>
<path d="M48.5729 39.382L48.1946 39.9491L32.3684 30.8124L16.5423 39.9491L16.2271 39.382L32.3684 30.0563L48.5729 39.382Z" fill="#AAC5F9"/>
<path d="M32.0532 11.972L32.0532 30.4343L32.7468 30.4343L32.7468 11.972L32.0532 11.972Z" fill="#AAC5F9"/>
<path d="M16.6053 2.52027L16.6053 40.2642L-0.103516 30.6234L-0.103518 -7.1205L16.6053 2.52027ZM15.9118 39.0669L15.9118 2.96134L0.590057 -5.86027L0.590058 30.2453L15.9118 39.0669Z" fill="#AAC5F9"/>
<path d="M48.762 39.067L48.762 58.3485L48.5728 58.4745L16.0378 77.252L16.0378 57.7814L16.227 57.6554L48.762 39.067ZM48.0053 57.9074L48.0053 40.2642L16.7314 58.1595L16.7314 75.9917L48.0053 57.9074Z" fill="#AAC5F9"/>
<path d="M33.0619 48.8966L16.0378 58.5374L-16.6233 39.823L0.274722 29.9932L0.463879 30.1192L33.0619 48.8966ZM16.1008 57.7183L31.6748 48.8966L0.274722 30.8123L-15.2361 39.823L16.1008 57.7183Z" fill="#AAC5F9"/>
<path d="M48.762 -16.3201L48.762 2.96141L48.5728 3.08744L16.0378 21.8649L16.0378 2.39431L16.227 2.26828L48.762 -16.3201ZM48.0053 2.52034L48.0053 -15.1229L16.6684 2.77238L16.6684 20.6046L48.0053 2.52034Z" fill="#AAC5F9"/>
<path d="M33.0619 -6.49026L16.0378 3.15051L-16.6233 -15.5639L0.274722 -25.3937L0.463879 -25.2677L33.0619 -6.49026ZM16.1008 2.33135L31.6748 -6.49026L0.274722 -24.5746L-15.2361 -15.5639L16.1008 2.33135Z" fill="#AAC5F9"/>
<path d="M113.328 113.358L113.328 151.101L96.6191 141.461L96.6191 103.717L113.328 113.358ZM112.634 149.841L112.634 113.736L97.3127 104.914L97.3127 141.02L112.634 149.841Z" fill="#AAC5F9"/>
<path d="M145.421 76.4328L145.421 95.2732L145.232 95.3993L129.028 104.725L112.697 95.2732L112.697 76.4328L112.886 76.3068L129.028 66.9811L145.421 76.4328ZM144.728 94.8952L144.728 76.8109L129.091 67.8002L113.454 76.8109L113.454 94.8952L129.028 103.906L144.728 94.8952Z" fill="#AAC5F9"/>
<path d="M145.233 94.7692L144.917 95.3993L129.028 86.2626L113.202 95.3993L112.887 94.7692L129.028 85.4435L145.233 94.7692Z" fill="#AAC5F9"/>
<path d="M128.713 67.3592L128.713 85.8215L129.406 85.8215L129.406 67.3592L128.713 67.3592Z" fill="#AAC5F9"/>
<path d="M113.328 57.9074L113.328 95.6513L96.6191 86.0105L96.6191 48.2666L113.328 57.9074ZM112.634 94.4541L112.634 58.3485L97.3127 49.5269L97.3127 85.6325L112.634 94.4541Z" fill="#AAC5F9"/>
<path d="M145.421 94.4541L145.421 113.736L145.232 113.862L112.697 132.639L112.697 113.169L112.886 113.043L145.421 94.4541ZM144.728 113.358L144.728 95.7144L113.391 113.61L113.391 131.442L144.728 113.358Z" fill="#AAC5F9"/>
<path d="M129.784 104.284L112.76 113.925L80.0361 95.2103L96.9341 85.3805L97.1233 85.5065L129.784 104.284ZM112.76 113.169L128.334 104.347L96.9341 86.2626L81.4233 95.2733L112.76 113.169Z" fill="#AAC5F9"/>
<path d="M145.421 20.9826L145.421 39.8861L145.232 40.0121L129.028 49.3378L112.697 39.8861L112.697 20.9826L112.886 20.8566L129.091 11.5309L145.421 20.9826ZM144.728 39.445L144.728 21.3607L129.091 12.3501L113.454 21.3607L113.454 39.445L129.028 48.5187L144.728 39.445Z" fill="#AAC5F9"/>
<path d="M145.233 39.3821L144.917 39.9492L129.028 30.8125L113.202 39.9492L112.887 39.3821L129.028 30.0563L145.233 39.3821Z" fill="#AAC5F9"/>
<path d="M128.713 11.972L128.713 30.4343L129.406 30.4343L129.406 11.972L128.713 11.972Z" fill="#AAC5F9"/>
<path d="M113.328 2.52027L113.328 40.2642L96.6191 30.6234L96.6191 -7.1205L113.328 2.52027ZM112.634 39.0669L112.634 2.96134L97.3127 -5.86027L97.3127 30.2453L112.634 39.0669Z" fill="#AAC5F9"/>
<path d="M145.421 39.067L145.421 58.3485L145.232 58.4745L112.697 77.252L112.697 57.7814L112.886 57.6554L145.421 39.067ZM144.728 57.9074L144.728 40.2642L113.391 58.1595L113.391 75.9917L144.728 57.9074Z" fill="#AAC5F9"/>
<path d="M129.784 48.8967L112.76 58.5375L80.0361 39.823L96.9341 29.9932L97.1233 30.1193L129.784 48.8967ZM112.76 57.7183L128.334 48.8967L96.9341 30.8124L81.4233 39.823L112.76 57.7183Z" fill="#AAC5F9"/>
<path d="M145.421 -16.3201L145.421 2.96141L145.232 3.08744L112.697 21.8649L112.697 2.39431L112.886 2.26828L145.421 -16.3201ZM144.728 2.52034L144.728 -15.1229L113.391 2.77238L113.391 20.6046L144.728 2.52034Z" fill="#AAC5F9"/>
<path d="M129.784 -6.49026L112.76 3.15051L80.0361 -15.5639L96.9341 -25.3937L97.1233 -25.2677L129.784 -6.49026ZM112.76 2.33135L128.334 -6.49026L96.9341 -24.5746L81.4863 -15.5639L112.76 2.33135Z" fill="#AAC5F9"/>
<path d="M97.0601 104.095L97.0601 122.935L96.8709 123.061L80.6665 132.387L64.3359 122.935L64.3359 104.095L64.5251 103.969L80.7295 94.6432L97.0601 104.095ZM96.3665 122.557L96.3665 104.473L80.7295 95.4623L65.0926 104.473L65.0926 122.557L80.7295 131.568L96.3665 122.557Z" fill="#AAC5F9"/>
<path d="M80.3511 95.0843L80.3511 113.547L81.0446 113.547L81.0446 95.0843L80.3511 95.0843Z" fill="#AAC5F9"/>
<path d="M64.9037 85.6325L64.9037 123.376L48.1948 113.736L48.1948 75.9917L64.9037 85.6325ZM64.2101 122.179L64.2101 86.0735L48.8884 77.2519L48.8884 113.358L64.2101 122.179Z" fill="#AAC5F9"/>
<path d="M97.0601 48.7078L97.0601 67.5482L96.8709 67.6742L80.6665 76.9999L64.3359 67.5482L64.3359 48.7078L64.5251 48.5817L80.7295 39.256L97.0601 48.7078ZM96.3665 67.1701L96.3665 49.0858L80.7295 40.0752L65.0926 49.0858L65.0926 67.1701L80.7295 76.1808L96.3665 67.1701Z" fill="#AAC5F9"/>
<path d="M96.8707 67.0441L96.4924 67.6743L80.6663 58.5376L64.8402 67.6743L64.5249 67.0441L80.6663 57.7184L96.8707 67.0441Z" fill="#AAC5F9"/>
<path d="M80.3511 39.6971L80.3511 58.1594L81.0446 58.1594L81.0446 39.6971L80.3511 39.6971Z" fill="#AAC5F9"/>
<path d="M64.9037 30.2454L64.9037 67.9893L48.1948 58.3485L48.1948 20.6046L64.9037 30.2454ZM64.2101 66.792L64.2101 30.6864L48.8884 21.8648L48.8884 57.9704L64.2101 66.792Z" fill="#AAC5F9"/>
<path d="M97.0601 66.7921L97.0601 86.0736L96.8709 86.1996L64.3359 104.977L64.3359 85.5065L64.5251 85.3805L97.0601 66.7921ZM96.3665 85.6325L96.3665 67.9893L65.0295 85.8846L65.0295 103.717L96.3665 85.6325Z" fill="#AAC5F9"/>
<path d="M81.3603 76.6219L64.3362 86.2627L31.6121 67.5483L48.5101 57.7185L48.6992 57.8445L81.3603 76.6219ZM64.3992 85.4435L79.9732 76.6219L48.5731 58.5376L33.0623 67.5483L64.3992 85.4435Z" fill="#AAC5F9"/>
<path d="M97.0601 -6.67944L97.0601 12.161L96.8709 12.287L80.6665 21.6127L64.3359 12.161L64.3359 -6.67943L64.5251 -6.80547L80.7295 -16.1312L97.0601 -6.67944ZM96.3665 11.7829L96.3665 -6.30136L80.7295 -15.312L65.0926 -6.30136L65.0926 11.7829L80.7295 20.7936L96.3665 11.7829Z" fill="#AAC5F9"/>
<path d="M96.8707 11.6569L96.4924 12.287L80.6663 3.15038L64.8402 12.287L64.5249 11.6569L80.6663 2.33122L96.8707 11.6569Z" fill="#AAC5F9"/>
<path d="M80.3511 -15.6901L80.3511 2.77228L81.0446 2.77228L81.0446 -15.6901L80.3511 -15.6901Z" fill="#AAC5F9"/>
<path d="M64.9032 -25.1419L64.9032 12.6021L48.1943 2.96128L48.1943 -34.7826L64.9032 -25.1419ZM64.2096 11.3418L64.2096 -24.7638L48.8879 -33.5854L48.8879 2.52021L64.2096 11.3418Z" fill="#AAC5F9"/>
<path d="M97.0601 11.4049L97.0601 30.6864L96.8709 30.8124L64.3359 49.5898L64.3359 30.1193L64.5251 29.9933L97.0601 11.4049ZM96.3665 30.2453L96.3665 12.6021L65.0295 30.4974L65.0295 48.3296L96.3665 30.2453Z" fill="#AAC5F9"/>
<path d="M81.36 21.2347L64.3359 30.8754L31.6748 12.161L48.5728 2.3312L48.762 2.45723L81.36 21.2347ZM64.3989 30.0563L79.9729 21.2347L48.5728 3.15036L33.062 12.161L64.3989 30.0563Z" fill="#AAC5F9"/>
<path d="M161.563 85.6325L161.563 123.376L144.854 113.736L144.854 75.9917L161.563 85.6325ZM160.869 122.179L160.869 86.0736L145.548 77.252L145.548 113.358L160.869 122.179Z" fill="#AAC5F9"/>
<path d="M161.563 30.2453L161.563 67.9892L144.854 58.3484L144.854 20.6045L161.563 30.2453ZM160.869 66.792L160.869 30.6864L145.548 21.8648L145.548 57.9704L160.869 66.792Z" fill="#AAC5F9"/>
<path d="M178.019 76.6219L160.995 86.2626L128.271 67.5482L145.169 57.7184L145.358 57.8444L178.019 76.6219ZM160.995 85.4435L176.569 76.6219L145.169 58.5376L129.658 67.5482L160.995 85.4435Z" fill="#AAC5F9"/>
<path d="M161.563 -25.1419L161.563 12.6021L144.854 2.96128L144.854 -34.7826L161.563 -25.1419ZM160.869 11.3418L160.869 -24.7638L145.548 -33.5854L145.548 2.52021L160.869 11.3418Z" fill="#AAC5F9"/>
<path d="M178.019 21.2347L160.995 30.8754L128.271 12.161L145.169 2.3312L145.358 2.45723L178.019 21.2347ZM160.995 30.0563L176.569 21.2347L145.169 3.15036L129.658 12.161L160.995 30.0563Z" fill="#AAC5F9"/>
</g>
<rect width="31.7939" height="62.9593" transform="matrix(-1 0 0 1 83.2059 48.9683)" fill="white"/>
<rect width="31.7939" height="62.9593" transform="matrix(-1 0 0 1 61.7937 48.9683)" fill="#2B6DEF"/>
<rect width="31.7939" height="31.4796" transform="matrix(-1 0 0 1 115 80.4479)" fill="white"/>
<rect width="31.7939" height="31.4796" transform="matrix(-1 0 0 1 93.5884 80.4479)" fill="#AAC5F9"/>
<rect width="17.6415" height="17.4671" rx="8.73357" transform="matrix(-1 0 0 1 98.9624 54.2614)" fill="#25CD79"/>
<path d="M92.5474 65.3767L87.2015 60.0837" stroke="white" stroke-width="2" stroke-linecap="round" stroke-linejoin="round"/>
<path d="M87.2015 65.3767L87.2015 60.0837L92.5474 60.0837" stroke="white" stroke-width="2" stroke-linecap="round" stroke-linejoin="round"/>
</svg>
