<svg width="729" height="557" viewBox="0 0 729 557" fill="none" xmlns="http://www.w3.org/2000/svg">
<mask id="mask0" mask-type="alpha" maskUnits="userSpaceOnUse" x="0" y="0" width="729" height="557">
<rect width="729" height="557" fill="#C4C4C4"/>
</mask>
<g mask="url(#mask0)">
<path d="M730.8 -81.0242L2 337" stroke="#E7E9EE" stroke-miterlimit="10"/>
<path d="M730.8 -152.001L424.237 25.3523" stroke="#E7E9EE" stroke-miterlimit="10"/>
<path d="M301.4 -116.601L362.642 -81.0241V131.375L301.4 95.9751V-116.601Z" stroke="#E7E9EE" stroke-miterlimit="10"/>
<path d="M424.06 -116.601L362.642 -81.2011V131.375L424.06 95.9751V-116.601Z" fill="#E7E9EE" stroke="#E7E9EE" stroke-miterlimit="10"/>
<path d="M424.06 95.975L362.642 131.375V556.527L424.06 521.127V95.975Z" stroke="#E7E9EE" stroke-miterlimit="10"/>
<path d="M301.4 -116.601L239.981 -81.0241V131.375L301.4 95.9751V-116.601Z" stroke="#E7E9EE" stroke-miterlimit="10"/>
<path d="M301.4 95.975L239.981 131.375V414.751L301.4 379.351V95.975Z" stroke="#E7E9EE" stroke-miterlimit="10"/>
<path d="M485.479 60.5752L424.06 95.975V450.327L485.479 414.751V60.5752Z" stroke="#E7E9EE" stroke-miterlimit="10"/>
<path d="M239.981 -81.0242V131.375L178.74 166.775V-45.6243L239.981 -81.0242Z" stroke="#E7E9EE" stroke-miterlimit="10"/>
<path d="M546.721 -187.401V25.1754L485.479 60.5752V-151.824L546.721 -187.401Z" stroke="#E7E9EE" stroke-miterlimit="10"/>
<path d="M117.321 131.375L178.74 166.775V450.327L117.321 414.75V131.375Z" stroke="#E7E9EE" stroke-miterlimit="10"/>
<path d="M301.4 95.975L362.642 131.375V485.727L301.4 450.327V95.975Z" fill="url(#paint0_linear)"/>
<path d="M730.8 131.375L362.642 343.951" stroke="#E7E9EE" stroke-miterlimit="10"/>
</g>
<defs>
<linearGradient id="paint0_linear" x1="332.021" y1="95.975" x2="332.021" y2="452" gradientUnits="userSpaceOnUse">
<stop stop-color="#D5E2FC"/>
<stop offset="1" stop-color="#D5E2FC" stop-opacity="0"/>
</linearGradient>
</defs>
</svg>
