<svg width="78" height="64" viewBox="0 0 78 64" fill="none" xmlns="http://www.w3.org/2000/svg">
<path d="M40.3478 40.3478L41.7391 12.5217L51.4783 10.6667L52.4058 42.2029L40.3478 40.3478Z" fill="#B8B2F9"/>
<path d="M70.1363 63.5362H46.8406L42.2029 42.6667C47.0442 41.0529 50.0513 36.2218 49.3618 31.1654L49.1594 29.6812C44.9579 28.0006 42.2029 23.9313 42.2029 19.4062V8.8116H57.971V35.2464H62.0059C67.0062 35.2464 71.3773 38.6189 72.646 43.4555L75.94 56.014C76.9376 59.8173 74.0683 63.5362 70.1363 63.5362Z" fill="#DBD9FC"/>
<path d="M1.03346 37.1806C0.512982 35.2722 1.94963 33.3913 3.92775 33.3913H41.4666C43.2704 33.3913 44.851 34.5986 45.3256 36.3388L51.8361 60.2106C52.3566 62.1191 50.9199 64 48.9418 64H11.403C9.59921 64 8.01857 62.7927 7.54395 61.0525L1.03346 37.1806Z" fill="#7165F3"/>
<path fill-rule="evenodd" clip-rule="evenodd" d="M66.7482 11.5942C66.6497 10.2674 66.3401 8.96272 65.8295 7.72988C65.2002 6.21067 64.2778 4.83028 63.1151 3.66753C61.9523 2.50478 60.5719 1.58244 59.0527 0.953161C57.5335 0.323884 55.9053 0 54.2609 0C52.6165 0 50.9882 0.323884 49.469 0.953161C47.9498 1.58244 46.5694 2.50478 45.4067 3.66753C44.2439 4.83028 43.3216 6.21067 42.6923 7.72988C42.063 9.24909 41.7391 10.8774 41.7391 12.5217L42.2119 12.7608C44.2737 13.8037 46.6402 14.0758 48.8848 13.5281C51.0995 12.9876 53.3002 14.4652 53.6384 16.7196L55.3682 28.2518C56.3983 35.1192 56.1159 35.7101 57.971 43.1304C63.3028 43.1304 67.5806 38.725 67.4238 33.3955L66.7826 11.5942H66.7482Z" fill="#7165F3"/>
<circle cx="26.5" cy="48.5" r="3.5" fill="white"/>
</svg>
