<svg width="64" height="64" viewBox="0 0 64 64" fill="none" xmlns="http://www.w3.org/2000/svg">
<path d="M32 64C49.6731 64 64 49.6731 64 32C64 14.3269 49.6731 0 32 0C14.3269 0 0 14.3269 0 32C0 49.6731 14.3269 64 32 64Z" fill="#DBD9FC"/>
<path d="M34.7374 42.0373L21.9628 29.2626C21.798 29.0978 21.5446 29.0978 21.3798 29.2626L18.5917 32.0507C18.541 32.1014 18.503 32.1648 18.4903 32.2281L15.3093 43.2032C15.2713 43.3426 15.3093 43.5074 15.4107 43.6087L20.404 48.602C20.5054 48.7034 20.6701 48.7541 20.8095 48.7034L31.8226 45.4844C31.886 45.459 31.9493 45.4337 32 45.383L34.7628 42.6202C34.9022 42.4681 34.9022 42.202 34.7374 42.0373Z" fill="#493AF0"/>
<path d="M37.0946 33.7996C36.6004 33.3054 35.7893 33.3054 35.295 33.7996L30.8974 38.1973L32.697 39.9969L37.0946 35.5992C37.5889 35.105 37.5889 34.2939 37.0946 33.7996Z" fill="white"/>
<path d="M30.2005 26.9054C29.7063 26.4111 28.8952 26.4111 28.4009 26.9054L24.0033 31.303L25.8029 33.1026L30.2005 28.705C30.6948 28.2107 30.6948 27.3996 30.2005 26.9054Z" fill="white"/>
<path d="M18.9085 47.1318L10.4174 55.6229C9.70771 54.9766 9.02335 54.2922 8.37701 53.5825L16.8681 45.0914L18.9085 47.1318Z" fill="#B8B2F9"/>
<path d="M42.0373 34.7374L29.2627 21.9627C29.0979 21.798 29.0979 21.5445 29.2627 21.3798L32.0508 18.5916C32.1015 18.5409 32.1648 18.5029 32.2282 18.4903L43.2033 15.3093C43.3427 15.2712 43.5074 15.3093 43.6088 15.4106L48.6021 20.4039C48.7035 20.5053 48.7541 20.6701 48.7035 20.8095L45.4844 31.8225C45.4591 31.8859 45.4338 31.9493 45.3831 32L42.6203 34.7627C42.4682 34.9021 42.2021 34.9021 42.0373 34.7374Z" fill="#7165F3"/>
<path d="M55.623 10.4175L47.1193 18.9213L45.0789 16.8809L53.5699 8.38977C54.2923 9.02343 54.9767 9.70779 55.623 10.4175Z" fill="#B8B2F9"/>
</svg>
