<svg width="80" height="46" viewBox="0 0 80 46" version="1.1" xmlns="http://www.w3.org/2000/svg" xmlns:xlink="http://www.w3.org/1999/xlink">
<title>flying-bird</title>
<desc>Created using Figma</desc>
<g id="Canvas" transform="translate(-674 -1322)">
<g id="flying-bird">
<g id="Canvas">
<g id="Send Icon">
<g id="Vector">
<g id="Vector">
<use xlink:href="#path0_fill" transform="translate(692.057 1328.86)" fill="#FFFFFF"/>
</g>
<g id="Vector">
<use xlink:href="#path1_fill" transform="translate(690.914 1327.71)" fill="#1E3658"/>
</g>
</g>
<g id="Vector">
<g id="Vector">
<use xlink:href="#path2_fill" transform="translate(684.286 1340.29)" fill="#1E3658"/>
</g>
</g>
<g id="Vector">
<g id="Vector">
<use xlink:href="#path3_fill" transform="translate(674 1333.43)" fill="#1E3658"/>
</g>
</g>
<g id="Vector">
<g id="Vector">
<use xlink:href="#path4_fill" transform="translate(679.943 1333.43)" fill="#1E3658"/>
</g>
</g>
<g id="Vector">
<g id="Vector">
<use xlink:href="#path5_fill" transform="translate(683.143 1327.71)" fill="#1E3658"/>
</g>
</g>
<g id="Vector">
<g id="Vector">
<use xlink:href="#path6_fill" transform="translate(696.4 1323.14)" fill="#FFFFFF"/>
</g>
<g id="Vector">
<use xlink:href="#path7_fill" transform="translate(695.257 1322)" fill="#1E3658"/>
</g>
</g>
<g id="Vector">
<g id="Vector">
<use xlink:href="#path8_fill" transform="translate(730 1323.83)" fill="#FFFFFF"/>
</g>
<g id="Vector">
<use xlink:href="#path9_fill" transform="translate(728.857 1322.69)" fill="#1E3658"/>
</g>
</g>
<g id="Vector">
<g id="Vector">
<use xlink:href="#path10_fill" transform="translate(743.714 1323.83)" fill="#FFFFFF"/>
</g>
<g id="Vector">
<use xlink:href="#path11_fill" transform="translate(742.571 1322.69)" fill="#1E3658"/>
</g>
</g>
<g id="Vector">
<g id="Vector">
<use xlink:href="#path12_fill" transform="translate(704.857 1348.29)" fill="#FFFFFF"/>
</g>
<g id="Vector">
<use xlink:href="#path13_fill" transform="translate(703.714 1347.14)" fill="#1E3658"/>
</g>
</g>
<g id="Vector">
<g id="Vector">
<use xlink:href="#path14_fill" transform="translate(704.857 1344.86)" fill="#FFFFFF"/>
</g>
<g id="Vector">
<use xlink:href="#path15_fill" transform="translate(703.714 1343.71)" fill="#1E3658"/>
</g>
</g>
</g>
</g>
</g>
</g>
<defs>
<path id="path0_fill" d="M 8.4571 1.09328e-13L -4.37313e-13 1.09328e-13L 16.9143 20.1143L 19.6571 16.4571"/>
<path id="path1_fill" d="M 9.59997 2.28571C 10.2311 2.28571 10.7428 1.77404 10.7428 1.14286C 10.7428 0.511675 10.2311 -6.07038e-08 9.59997 -6.07038e-08L 9.59997 2.28571ZM 1.14287 1.14286L 1.14287 -6.07038e-08C 0.698503 -6.07038e-08 0.294421 0.257579 0.106835 0.660416C -0.0807491 1.06325 -0.0178234 1.5383 0.268172 1.8784L 1.14287 1.14286ZM 18.0571 21.2571L 17.1824 21.9927C 17.4068 22.2594 17.7405 22.4093 18.089 22.3996C 18.4374 22.3898 18.7623 22.2217 18.9714 21.9429L 18.0571 21.2571ZM 21.7143 18.2857C 22.093 17.7808 21.9907 17.0644 21.4857 16.6857C 20.9808 16.307 20.2644 16.4093 19.8857 16.9143L 21.7143 18.2857ZM 9.59997 -6.07038e-08L 1.14287 -6.07038e-08L 1.14287 2.28571L 9.59997 2.28571L 9.59997 -6.07038e-08ZM 0.268172 1.8784L 17.1824 21.9927L 18.9318 20.5216L 2.01757 0.407316L 0.268172 1.8784ZM 18.9714 21.9429L 21.7143 18.2857L 19.8857 16.9143L 17.1429 20.5714L 18.9714 21.9429Z"/>
<path id="path2_fill" d="M 18.2857 2.28571C 18.9169 2.28571 19.4286 1.77404 19.4286 1.14286C 19.4286 0.511675 18.9169 0 18.2857 0L 18.2857 2.28571ZM 1.14286 0C 0.511675 0 2.3625e-08 0.511675 2.3625e-08 1.14286C 2.3625e-08 1.77404 0.511675 2.28571 1.14286 2.28571L 1.14286 0ZM 18.2857 0L 1.14286 0L 1.14286 2.28571L 18.2857 2.28571L 18.2857 0Z"/>
<path id="path3_fill" d="M 2.51423 2.28571C 3.14541 2.28571 3.65709 1.77404 3.65709 1.14286C 3.65709 0.511675 3.14541 -6.07038e-08 2.51423 -6.07038e-08L 2.51423 2.28571ZM 1.14286 -6.07038e-08C 0.511675 -6.07038e-08 2.3625e-08 0.511675 2.3625e-08 1.14286C 2.3625e-08 1.77404 0.511675 2.28571 1.14286 2.28571L 1.14286 -6.07038e-08ZM 2.51423 -6.07038e-08L 1.14286 -6.07038e-08L 1.14286 2.28571L 2.51423 2.28571L 2.51423 -6.07038e-08Z"/>
<path id="path4_fill" d="M 16.9143 2.28571C 17.5455 2.28571 18.0572 1.77404 18.0572 1.14286C 18.0572 0.511675 17.5455 -6.07038e-08 16.9143 -6.07038e-08L 16.9143 2.28571ZM 1.14286 -6.07038e-08C 0.511673 -6.07038e-08 4.44946e-08 0.511675 4.44946e-08 1.14286C 4.44946e-08 1.77404 0.511673 2.28571 1.14286 2.28571L 1.14286 -6.07038e-08ZM 16.9143 -6.07038e-08L 1.14286 -6.07038e-08L 1.14286 2.28571L 16.9143 2.28571L 16.9143 -6.07038e-08Z"/>
<path id="path5_fill" d="M 9.59995 2.28571C 10.2311 2.28571 10.7428 1.77404 10.7428 1.14286C 10.7428 0.511675 10.2311 4.51834e-08 9.59995 4.51834e-08L 9.59995 2.28571ZM 1.14286 4.51834e-08C 0.511675 4.51834e-08 2.3625e-08 0.511675 2.3625e-08 1.14286C 2.3625e-08 1.77404 0.511675 2.28571 1.14286 2.28571L 1.14286 4.51834e-08ZM 9.59995 4.51834e-08L 1.14286 4.51834e-08L 1.14286 2.28571L 9.59995 2.28571L 9.59995 4.51834e-08Z"/>
<path id="path6_fill" d="M 0 0L 22.6285 0L 42.6 25.3714L 18.0571 25.3714L 0 0Z"/>
<path id="path7_fill" d="M 1.14286 1.14286L 1.14286 0C 0.715112 0 0.323171 0.238866 0.127116 0.61904C -0.0689383 0.999213 -0.0362824 1.45704 0.211747 1.80554L 1.14286 1.14286ZM 23.7714 1.14286L 24.6695 0.43597C 24.4528 0.160686 24.1218 0 23.7714 0L 23.7714 1.14286ZM 43.7428 26.5143L 43.7428 27.6571C 44.1806 27.6571 44.5799 27.4071 44.771 27.0135C 44.962 26.6196 44.9115 26.1513 44.6409 25.8073L 43.7428 26.5143ZM 19.2 26.5143L 18.2689 27.1769C 18.4833 27.4782 18.8302 27.6571 19.2 27.6571L 19.2 26.5143ZM 1.14286 2.28571L 23.7714 2.28571L 23.7714 0L 1.14286 0L 1.14286 2.28571ZM 22.8734 1.84974L 42.8448 27.2212L 44.6409 25.8073L 24.6695 0.43597L 22.8734 1.84974ZM 43.7428 25.3714L 19.2 25.3714L 19.2 27.6571L 43.7428 27.6571L 43.7428 25.3714ZM 20.1311 25.8516L 2.07397 0.480173L 0.211747 1.80554L 18.2689 27.1769L 20.1311 25.8516Z"/>
<path id="path8_fill" d="M -6.1791e-20 13.0286L 9.14285 24.4571L 15.0856 0L -6.1791e-20 13.0286Z"/>
<path id="path9_fill" d="M 1.14288 14.1715L 0.395886 13.3065C -0.0691465 13.7081 -0.133386 14.4056 0.250462 14.8854L 1.14288 14.1715ZM 10.2857 25.6L 9.39332 26.3141C 9.66555 26.6542 10.1077 26.8101 10.5331 26.7159C 10.9586 26.6215 11.2934 26.2933 11.3963 25.8699L 10.2857 25.6ZM 16.2285 1.14287L 17.3391 1.41271C 17.4564 0.929909 17.2483 0.426622 16.8243 0.1676C 16.4003 -0.0914216 15.8575 -0.0468273 15.4815 0.277927L 16.2285 1.14287ZM 0.250462 14.8854L 9.39332 26.3141L 11.1781 24.8862L 2.0353 13.4575L 0.250462 14.8854ZM 11.3963 25.8699L 17.3391 1.41271L 15.118 0.873017L 9.1752 25.3301L 11.3963 25.8699ZM 15.4815 0.277927L 0.395886 13.3065L 1.88988 15.0364L 16.9755 2.0078L 15.4815 0.277927Z"/>
<path id="path10_fill" d="M 1.37134 0L -6.1791e-20 8.45716L 9.14285 8.45714L 1.37134 0Z"/>
<path id="path11_fill" d="M 2.51421 1.14289L 3.35572 0.369605C 3.05956 0.047317 2.60535 -0.0775127 2.18608 0.0481559C 1.76681 0.173822 1.45615 0.527913 1.38609 0.959966L 2.51421 1.14289ZM 1.14287 9.60006L 0.0147426 9.41713C -0.0388871 9.74787 0.0553277 10.0855 0.272468 10.3407C 0.489609 10.5959 0.807798 10.7429 1.14287 10.7429L 1.14287 9.60006ZM 10.2857 9.60003L 10.2857 10.7429C 10.7392 10.7429 11.1498 10.4748 11.3321 10.0596C 11.5145 9.6444 11.4341 9.16065 11.1272 8.82675L 10.2857 9.60003ZM 1.38609 0.959966L 0.0147426 9.41713L 2.27099 9.78298L 3.64234 1.32582L 1.38609 0.959966ZM 1.14287 10.7429L 10.2857 10.7429L 10.2857 8.45718L 1.14287 8.4572L 1.14287 10.7429ZM 11.1272 8.82675L 3.35572 0.369605L 1.6727 1.91618L 9.44421 10.3733L 11.1272 8.82675Z"/>
<path id="path12_fill" d="M 34.2857 0L 10.1247 0L 0 18.2857L 34.2857 0Z"/>
<path id="path13_fill" d="M 35.4286 1.14286L 35.9664 2.15126C 36.429 1.90447 36.6645 1.37444 36.5374 0.865673C 36.4101 0.356912 35.9529 0 35.4286 0L 35.4286 1.14286ZM 11.2676 1.14286L 11.2676 0C 10.852 0 10.4691 0.225646 10.2677 0.589259L 11.2676 1.14286ZM 1.14288 19.4286L 0.143057 18.875C -0.102209 19.3179 -0.0267716 19.8695 0.328435 20.2303C 0.683642 20.5911 1.23393 20.6752 1.6807 20.437L 1.14288 19.4286ZM 35.4286 0L 11.2676 0L 11.2676 2.28571L 35.4286 2.28571L 35.4286 0ZM 10.2677 0.589259L 0.143057 18.875L 2.14271 19.9822L 12.2674 1.69645L 10.2677 0.589259ZM 1.6807 20.437L 35.9664 2.15126L 34.8908 0.134455L 0.605068 18.4202L 1.6807 20.437Z"/>
<path id="path14_fill" d="M 0 21.7143L 4.11424 3.65714L 6.85714 0L 9.14285 4.57143L 0 21.7143Z"/>
<path id="path15_fill" d="M 5.25725 4.80001L 4.34297 4.11429C 4.24672 4.24259 4.17858 4.38974 4.14295 4.54611L 5.25725 4.80001ZM 1.14302 22.8571L 0.0287169 22.6032C -0.0984922 23.1616 0.207119 23.7278 0.74364 23.928C 1.28016 24.128 1.88195 23.9002 2.15142 23.3949L 1.14302 22.8571ZM 8.00016 1.14287L 9.02235 0.631765C 8.84523 0.277495 8.49728 0.0402017 8.10281 0.0046291C 7.70832 -0.0309435 7.32354 0.140277 7.08587 0.457143L 8.00016 1.14287ZM 10.2859 5.71429L 11.2943 6.2521C 11.4685 5.92536 11.4737 5.53441 11.3081 5.20318L 10.2859 5.71429ZM 4.14295 4.54611L 0.0287169 22.6032L 2.25731 23.111L 6.37154 5.0539L 4.14295 4.54611ZM 6.17152 5.48572L 8.91444 1.82859L 7.08587 0.457143L 4.34297 4.11429L 6.17152 5.48572ZM 6.97796 1.65397L 9.26368 6.2254L 11.3081 5.20318L 9.02235 0.631765L 6.97796 1.65397ZM 9.27746 5.17649L 0.134614 22.3193L 2.15142 23.3949L 11.2943 6.2521L 9.27746 5.17649Z"/>
</defs>
</svg>
