<svg width="50" height="50" viewBox="0 0 50 50" version="1.1" xmlns="http://www.w3.org/2000/svg" xmlns:xlink="http://www.w3.org/1999/xlink">
<title>happy-face</title>
<desc>Created using Figma</desc>
<g id="Canvas" transform="translate(-63 -1322)">
<g id="happy-face">
<g id="Canvas">
<g id="User Icon">
<g id="LeftEar">
<g id="Vector">
<use xlink:href="#path0_fill" transform="translate(64.25 1323.25)" fill="#FFFFFF"/>
</g>
<g id="Vector">
<use xlink:href="#path1_fill" transform="translate(99.6882 1323.25)" fill="#FFFFFF"/>
</g>
<g id="Vector">
<use xlink:href="#path2_fill" transform="translate(63 1322)" fill="#1E3658"/>
</g>
</g>
<g id="Body">
<g id="Vector">
<use xlink:href="#path3_fill" transform="translate(68 1323.25)" fill="#FFFFFF"/>
</g>
<g id="Vector">
<use xlink:href="#path4_fill" transform="translate(66.75 1322)" fill="#1E3658"/>
</g>
</g>
<g id="Mouth">
<g id="Mouth">
<g id="Vector">
<use xlink:href="#path5_fill" transform="translate(83 1343.6)" fill="#FFFFFF"/>
</g>
<g id="Vector">
<use xlink:href="#path6_fill" transform="translate(81.7496 1342.35)" fill="#1E3658"/>
</g>
</g>
<g id="Lip">
<g id="Vector">
<use xlink:href="#path7_fill" transform="translate(86.75 1338.25)" fill="#1E3658"/>
</g>
</g>
<g id="Nose">
<g id="Vector">
<use xlink:href="#path8_fill" transform="translate(84.25 1338.25)" fill="#1E3658"/>
</g>
</g>
</g>
<g id="Eyes">
<g id="LeftEye">
<g id="Vector">
<use xlink:href="#path9_fill" transform="translate(78.1765 1333.25)" fill="#FFFFFF"/>
</g>
<g id="Vector">
<use xlink:href="#path10_fill" transform="translate(77.5515 1332.63)" fill="#1E3658"/>
</g>
</g>
<g id="RightEye">
<g id="Vector">
<use xlink:href="#path11_fill" transform="translate(93.9764 1333.25)" fill="#FFFFFF"/>
</g>
<g id="Vector">
<use xlink:href="#path12_fill" transform="translate(93.3514 1332.63)" fill="#1E3658"/>
</g>
</g>
</g>
</g>
</g>
</g>
</g>
<defs>
<path id="path0_fill" d="M 4.99999 12.4998L 1.49213 9.34498C -0.497376 7.34501 -0.497376 3.84507 1.49213 1.5951C 3.48165 -0.654862 6.96326 -0.404869 9.20146 1.5951L 12.0616 3.96966"/>
<path id="path1_fill" d="M 7.06174 12.4998L 10.5695 9.34498C 12.559 7.34501 12.559 3.84507 10.5695 1.5951C 8.57998 -0.654864 5.09849 -0.404868 2.86025 1.5951L -8.88823e-07 3.96966"/>
<path id="path2_fill" d="M 2.74213 10.5957L 1.85593 11.4772C 1.87226 11.4937 1.88904 11.5096 1.90625 11.5251L 2.74213 10.5957ZM 10.4515 2.84583L 9.61857 3.77792C 9.62987 3.78799 9.64134 3.79789 9.65299 3.80757L 10.4515 2.84583ZM 47.2577 10.5957L 48.0937 11.5251C 48.1109 11.5096 48.1277 11.4937 48.1439 11.4772L 47.2577 10.5957ZM 39.5484 2.84583L 40.3469 3.80757C 40.3587 3.79789 40.3699 3.78799 40.3814 3.77792L 39.5484 2.84583ZM 7.08587 12.8212L 3.57801 9.66633L 1.90625 11.5251L 5.41412 14.6799L 7.08587 12.8212ZM 3.62834 9.71418C 2.15039 8.22845 2.08065 5.48094 3.67856 3.67383L 1.80571 2.01783C -0.575392 4.71065 -0.645136 8.96304 1.85593 11.4772L 3.62834 9.71418ZM 3.67856 3.67383C 5.0874 2.08056 7.74857 2.10693 9.61857 3.77792L 11.2844 1.91376C 8.67799 -0.415205 4.37588 -0.888825 1.80571 2.01783L 3.67856 3.67383ZM 9.65299 3.80757L 12.5132 6.18213L 14.1101 4.25866L 11.2499 1.8841L 9.65299 3.80757ZM 44.5859 14.6799L 48.0937 11.5251L 46.4219 9.66633L 42.9139 12.8212L 44.5859 14.6799ZM 48.1439 11.4772C 50.6452 8.96304 50.5754 4.71065 48.1942 2.01783L 46.3214 3.67383C 47.9192 5.48094 47.8494 8.22845 46.3717 9.71418L 48.1439 11.4772ZM 48.1942 2.01783C 45.6239 -0.888823 41.3219 -0.415205 38.7157 1.91376L 40.3814 3.77792C 42.2514 2.10693 44.9124 2.08056 46.3214 3.67383L 48.1942 2.01783ZM 38.7499 1.88411L 35.89 4.25868L 37.4867 6.18213L 40.3469 3.80757L 38.7499 1.88411Z"/>
<path id="path3_fill" d="M 0 47.4993L 0 21.3366C 0 9.39826 9.04761 0 20 0C 30.9525 0 39.9999 9.65225 39.9999 21.3366L 39.9999 47.4993"/>
<path id="path4_fill" d="M 0 48.7493C 0 49.4395 0.559644 49.9992 1.25 49.9992C 1.94035 49.9992 2.5 49.4395 2.5 48.7493L 0 48.7493ZM 39.9999 48.7493C 39.9999 49.4395 40.5597 49.9992 41.2499 49.9992C 41.9402 49.9992 42.4999 49.4395 42.4999 48.7493L 39.9999 48.7493ZM 2.5 48.7493L 2.5 22.5866L 0 22.5866L 0 48.7493L 2.5 48.7493ZM 2.5 22.5866C 2.5 11.2711 11.0535 2.49996 21.25 2.49996L 21.25 0C 9.54169 0 0 10.0253 0 22.5866L 2.5 22.5866ZM 21.25 2.49996C 31.437 2.49996 39.9999 11.5152 39.9999 22.5866L 42.4999 22.5866C 42.4999 10.2893 32.9677 0 21.25 0L 21.25 2.49996ZM 39.9999 22.5866L 39.9999 48.7493L 42.4999 48.7493L 42.4999 22.5866L 39.9999 22.5866Z"/>
<path id="path5_fill" d="M 10.4449 -2.9894e-14C 10.4449 -2.9894e-14 7.95801 0.999984 5.22244 0.999984C 2.48688 0.999984 1.42121e-14 -2.9894e-14 1.42121e-14 -2.9894e-14"/>
<path id="path6_fill" d="M 12.1616 2.41005C 12.8021 2.1525 13.1125 1.42448 12.855 0.783974C 12.5974 0.143471 11.8694 -0.166972 11.2289 0.0905794L 12.1616 2.41005ZM 1.71667 0.0905794C 1.07616 -0.166972 0.348137 0.143471 0.0905821 0.783974C -0.166975 1.42448 0.143472 2.15249 0.783984 2.41004L 1.71667 0.0905794ZM 11.6952 1.25031C 11.2289 0.0905793 11.2291 0.0904969 11.2293 0.0904169C 11.2293 0.0903969 11.2295 0.0903194 11.2296 0.0902769C 11.2296 0.0903044 11.2303 0.0900119 11.2302 0.0900669C 11.2302 0.0900619 11.2306 0.0899044 11.2306 0.0899119C 11.2299 0.0901569 11.2299 0.090172 11.2287 0.0906495C 11.2251 0.0920669 11.2216 0.0934494 11.2146 0.0961593C 11.1982 0.102517 11.1779 0.110327 11.1464 0.122049C 11.0785 0.147374 10.9879 0.180248 10.8617 0.223045C 10.5989 0.312429 10.2466 0.423892 9.79597 0.540375C 8.87154 0.780861 7.72249 1.0059 6.47277 1.00032L 6.47277 3.50028C 7.95862 3.49469 9.42082 3.21974 10.4237 2.96023C 10.9367 2.82672 11.3771 2.68819 11.6661 2.59008C 11.8158 2.53912 11.9409 2.49388 12.0197 2.46451C 12.0616 2.44889 12.0973 2.43522 12.1187 2.42693C 12.1306 2.42231 12.1414 2.41808 12.1473 2.41571C 12.1509 2.4143 12.1545 2.41288 12.1563 2.41216C 12.1575 2.41169 12.1588 2.41116 12.1594 2.41092C 12.1598 2.41075 12.1604 2.41053 12.1606 2.41044C 12.1608 2.41037 12.161 2.41027 12.1611 2.41023C 12.1614 2.41014 12.1616 2.41005 11.6952 1.25031ZM 6.47277 1.00032C 5.22307 1.0059 4.074 0.780861 3.1496 0.540375C 2.69893 0.423892 2.34663 0.312429 2.08382 0.223045C 1.95769 0.180248 1.86708 0.147374 1.79919 0.122049C 1.76771 0.110327 1.74735 0.102519 1.73097 0.0961618C 1.72397 0.0934494 1.72046 0.0920694 1.71687 0.0906495C 1.71566 0.090172 1.71563 0.0901594 1.71501 0.0899119C 1.71499 0.0899044 1.71538 0.0900619 1.7154 0.0900669C 1.71526 0.0900119 1.71599 0.0903069 1.71592 0.0902794C 1.71603 0.0903219 1.71622 0.0903969 1.71627 0.0904169C 1.71647 0.0904969 1.71667 0.0905793 1.25033 1.25031C 0.783983 2.41004 0.784209 2.41014 0.784444 2.41023C 0.784534 2.41027 0.784778 2.41036 0.784961 2.41044C 0.785181 2.41053 0.785729 2.41075 0.786171 2.41092C 0.786764 2.41116 0.788091 2.41169 0.789276 2.41216C 0.791071 2.41288 0.794646 2.4143 0.798224 2.41571C 0.804211 2.41808 0.815001 2.42231 0.826883 2.42692C 0.848266 2.43522 0.884003 2.44889 0.925868 2.46451C 1.00466 2.49387 1.12972 2.53912 1.27947 2.59008C 1.56844 2.68819 2.00884 2.82672 2.52182 2.96023C 3.52475 3.21974 4.98692 3.49469 6.47277 3.50028L 6.47277 1.00032Z"/>
<path id="path7_fill" d="M 2.5 1.24998C 2.5 0.559636 1.94035 0 1.25 0C 0.559644 0 0 0.559636 0 1.24998L 2.5 1.24998ZM 0 5.84504C 0 6.53538 0.559644 7.09502 1.25 7.09502C 1.94035 7.09502 2.5 6.53538 2.5 5.84504L 0 5.84504ZM 0 1.24998L 0 5.84504L 2.5 5.84504L 2.5 1.24998L 0 1.24998Z"/>
<path id="path8_fill" d="M 1.25 0C 0.559644 0 -3.31974e-08 0.559636 -3.31974e-08 1.24998C -3.31974e-08 1.94033 0.559644 2.49996 1.25 2.49996L 1.25 0ZM 6.24999 2.49996C 6.94034 2.49996 7.49999 1.94033 7.49999 1.24998C 7.49999 0.559636 6.94034 0 6.24999 0L 6.24999 2.49996ZM 1.25 2.49996L 6.24999 2.49996L 6.24999 0L 1.25 0L 1.25 2.49996Z"/>
<path id="path9_fill" d="M 3.89999 -2.40175e-14C 3.89999 1.42855 3 2.49996 1.8 2.49996C 0.600002 2.49996 0 1.42855 0 -2.40175e-14"/>
<path id="path10_fill" d="M 5.14999 0.624991C 5.14999 0.279818 4.87017 0 4.52499 0C 4.17982 0 3.89999 0.279818 3.89999 0.624991L 5.14999 0.624991ZM 1.25 0.624991C 1.25 0.279818 0.970176 0 0.624999 0C 0.279822 0 0 0.279818 0 0.624991L 1.25 0.624991ZM 3.89999 0.624991C 3.89999 1.81489 3.18215 2.49996 2.425 2.49996L 2.425 3.74994C 4.06784 3.74994 5.14999 2.29219 5.14999 0.624991L 3.89999 0.624991ZM 2.425 2.49996C 2.04244 2.49996 1.78293 2.34359 1.59375 2.06208C 1.38607 1.75305 1.25 1.26415 1.25 0.624991L 0 0.624991C 0 1.41439 0.163925 2.17547 0.556249 2.75927C 0.967071 3.3706 1.60756 3.74994 2.425 3.74994L 2.425 2.49996Z"/>
<path id="path11_fill" d="M 4.2 -2.40175e-14C 4.2 1.42855 3.3 2.49996 2.1 2.49996C 0.900001 2.49996 2.53647e-14 1.42855 2.53647e-14 -2.40175e-14"/>
<path id="path12_fill" d="M 5.45 0.624991C 5.45 0.279818 5.17017 0 4.825 0C 4.47982 0 4.2 0.279818 4.2 0.624991L 5.45 0.624991ZM 1.25 0.624991C 1.25 0.279818 0.970176 0 0.624999 0C 0.279822 0 8.11099e-09 0.279818 8.11099e-09 0.624991L 1.25 0.624991ZM 4.2 0.624991C 4.2 1.81489 3.48215 2.49996 2.725 2.49996L 2.725 3.74994C 4.36785 3.74994 5.45 2.29219 5.45 0.624991L 4.2 0.624991ZM 2.725 2.49996C 1.96784 2.49996 1.25 1.81489 1.25 0.624991L 8.11099e-09 0.624991C 8.11099e-09 2.29219 1.08216 3.74994 2.725 3.74994L 2.725 2.49996Z"/>
</defs>
</svg>
