<svg width="585" height="118" viewBox="0 0 585 118" fill="none" xmlns="http://www.w3.org/2000/svg">
<path d="M101.961 115L101.641 55.64L72.8406 103.96H58.7606L30.1206 57.24V115H0.840625V2.99999H26.9206L66.2806 67.64L104.681 2.99999H130.761L131.081 115H101.961ZM241.337 93.24H193.977L185.177 115H152.857L202.297 2.99999H233.497L283.097 115H250.137L241.337 93.24ZM232.057 69.88L217.657 34.04L203.257 69.88H232.057ZM323.093 28.12H288.693V2.99999H389.013V28.12H354.773V115H323.093V28.12ZM413.616 2.99999H445.296V115H413.616V2.99999ZM536.474 117.24C524.741 117.24 514.181 114.787 504.794 109.88C495.514 104.867 488.208 97.9333 482.874 89.08C477.541 80.2267 474.874 70.2 474.874 59C474.874 47.8 477.541 37.7733 482.874 28.92C488.208 20.0667 495.514 13.1867 504.794 8.27999C514.181 3.26666 524.741 0.759993 536.474 0.759993C546.714 0.759993 555.941 2.57333 564.154 6.2C572.368 9.82666 579.194 15.0533 584.634 21.88L564.474 40.12C557.221 31.3733 548.421 27 538.074 27C531.994 27 526.554 28.3333 521.754 31C517.061 33.6667 513.381 37.4533 510.714 42.36C508.154 47.16 506.874 52.7067 506.874 59C506.874 65.2933 508.154 70.8933 510.714 75.8C513.381 80.6 517.061 84.3333 521.754 87C526.554 89.6667 531.994 91 538.074 91C548.421 91 557.221 86.6267 564.474 77.88L584.634 96.12C579.194 102.947 572.368 108.173 564.154 111.8C555.941 115.427 546.714 117.24 536.474 117.24Z" fill="black"/>
</svg>
