<svg width="152" height="113" viewBox="0 0 152 113" fill="none" xmlns="http://www.w3.org/2000/svg">
<path d="M151.973 11.76V100.246C151.973 106.714 146.681 112.006 140.213 112.006H11.76C5.29185 112.006 0 106.714 0 100.246V11.76C0 5.29185 5.29185 0 11.76 0H140.213C146.681 1.68001e-05 151.973 5.29187 151.973 11.76Z" fill="white"/>
<path d="M151.973 23.9286V11.76C151.973 5.29185 146.681 0 140.213 0H11.76C5.29185 0 0 5.29185 0 11.76V23.9286H151.973Z" fill="#2B6DEF"/>
<path d="M25.8305 9.05031V14.8784C25.8305 16.3235 24.6481 17.5059 23.203 17.5059H17.3732C15.9281 17.5059 14.7457 16.3235 14.7457 14.8784V9.05031C14.7457 7.60515 15.928 6.42276 17.3732 6.42276H23.203C24.6481 6.42276 25.8305 7.60515 25.8305 9.05031Z" fill="#D5E2FC"/>
<path d="M43.0692 9.05031V14.8784C43.0692 16.3235 41.8868 17.5059 40.4416 17.5059H34.6119C33.1667 17.5059 31.9843 16.3235 31.9843 14.8784V9.05031C31.9843 7.60515 33.1667 6.42276 34.6119 6.42276H40.4416C41.8868 6.42276 43.0692 7.60515 43.0692 9.05031Z" fill="#EAF0FD"/>
<path d="M60.3079 9.05031V14.8784C60.3079 16.3235 59.1255 17.5059 57.6804 17.5059H51.8506C50.4054 17.5059 49.223 16.3235 49.223 14.8784V9.05031C49.223 7.60515 50.4054 6.42276 51.8506 6.42276H57.6804C59.1255 6.42276 60.3079 7.60515 60.3079 9.05031Z" fill="#D5E2FC"/>
<path d="M116.775 85.8189V91.7072C116.775 93.2087 115.556 94.4373 114.045 94.4373H81.3558C79.8543 94.4373 78.6256 93.2087 78.6256 91.7072V85.8189C78.6256 84.3085 79.8543 83.0887 81.3558 83.0887H114.045C115.556 83.0887 116.775 84.3085 116.775 85.8189Z" fill="#7165F3"/>
<path d="M67.1294 70.5412L62.9704 74.7004C61.9057 75.7651 60.1767 75.7651 59.1026 74.7004L35.9963 51.5939C34.9316 50.5201 34.9316 48.7911 35.9963 47.7262L40.1554 43.5674C41.2201 42.5024 42.9491 42.5024 44.0231 43.5674L67.1294 66.6735C68.1941 67.7475 68.1941 69.4765 67.1294 70.5412Z" fill="#AAC5F9"/>
<path d="M67.1294 70.5234L44.0231 93.6388C42.9491 94.7035 41.2201 94.7035 40.1554 93.6388L35.9963 89.4706C34.9316 88.4059 34.9316 86.6769 35.9963 85.6118L59.1026 62.4964C60.1766 61.4317 61.9057 61.4317 62.9704 62.4964L67.1294 66.6645C68.1941 67.7292 68.1941 69.4582 67.1294 70.5234Z" fill="#2B6DEF"/>
</svg>
