<svg width="24" height="21" viewBox="0 0 24 21" fill="none" xmlns="http://www.w3.org/2000/svg">
<path d="M22.2769 10.4591L24 12.1945L15.9631 20.3052L11.6923 15.9975L13.4154 14.2622L15.9631 16.8222L22.2769 10.4591ZM8.61539 16L12.3077 19.6923H0V17.2308C0 14.5108 4.40862 12.3077 9.84615 12.3077L12 12.5L8.61539 16ZM9.84615 0C11.1518 0 12.404 0.51868 13.3273 1.44194C14.2506 2.36519 14.7692 3.6174 14.7692 4.92308C14.7692 6.22876 14.2506 7.48096 13.3273 8.40422C12.404 9.32747 11.1518 9.84615 9.84615 9.84615C8.54047 9.84615 7.28827 9.32747 6.36501 8.40422C5.44176 7.48096 4.92308 6.22876 4.92308 4.92308C4.92308 3.6174 5.44176 2.36519 6.36501 1.44194C7.28827 0.51868 8.54047 0 9.84615 0Z" fill="white"/>
</svg>
