<svg width="104" height="25" viewBox="0 0 104 25" fill="none" xmlns="http://www.w3.org/2000/svg">
<path d="M0 3.125L16.3424 12.5V18.75L5.44747 12.5V25L0 21.875V3.125Z" fill="#2891F9"/>
<path d="M5.44751 25V12.5L10.895 15.625V21.875L5.44751 25Z" fill="#2BBDF7"/>
<path d="M0 3.125L5.44747 0L21.7899 9.375L16.3424 12.5L0 3.125Z" fill="#2B6DEF"/>
<path d="M16.3424 12.5L21.7899 9.375V15.625L16.3424 18.75V12.5Z" fill="#2BBDF7"/>
<path d="M21.7899 3.125V21.875L27.2374 25V6.25L21.7899 3.125Z" fill="#2891F9"/>
<path d="M32.6848 3.125L27.2373 6.25V25L32.6848 21.875V3.125Z" fill="#2BBDF7"/>
<path d="M27.2374 0L32.6849 3.125L27.2374 6.25L21.7899 3.125L27.2374 0Z" fill="#2B6DEF"/>
<path d="M70.7393 7.95175H73.4942V20.5755H70.7393V18.7964C69.7588 20.1733 68.0779 21.0706 66.3035 20.9623C64.6226 20.9623 63.0506 20.2661 61.8677 19.0904C60.6849 17.8063 60 16.1355 60 14.3565C59.9067 12.5774 60.5915 10.9066 61.7744 9.62254C62.9572 8.33851 64.5292 7.65782 66.2102 7.75064C67.9845 7.65782 69.5565 8.4468 70.646 9.82366L70.7393 7.95175ZM66.8016 18.3169C67.8911 18.3169 68.8716 17.9301 69.6654 17.2339C70.4592 16.4449 70.8483 15.362 70.8483 14.3719C70.8483 13.289 70.4592 12.2989 69.6654 11.5099C68.0934 9.93195 65.5253 9.93195 63.9378 11.5099C63.144 12.2989 62.7549 13.289 62.7549 14.3719C62.7549 15.4548 63.144 16.5378 63.9378 17.2339C64.6382 17.9146 65.7121 18.3169 66.8016 18.3169Z" fill="#061024"/>
<path d="M83.9689 10.6126H80.8093V16.6306C80.8093 18.2085 81.8988 18.2085 83.9689 18.1157V20.5755C79.8288 21.0706 78.1479 19.9876 78.1479 16.6306V10.6126H75.7821V7.95174H78.1479V4.40904H80.9027V7.95174H84.0623L83.9689 10.6126Z" fill="#061024"/>
<path d="M86.6304 5.58477C85.9456 4.88861 85.9456 3.80569 86.6304 3.21782C87.3153 2.52166 88.3114 2.52166 88.9962 3.125C88.9962 3.125 88.9962 3.125 89.0896 3.21782C89.7744 3.91398 89.7744 4.9969 89.0896 5.6776C88.4048 6.28094 87.3153 6.28094 86.6304 5.58477ZM86.4281 20.5755V7.95173H89.183V20.5755H86.4281Z" fill="#061024"/>
<path d="M93.5409 18.9975C92.2646 17.7135 91.5642 16.0427 91.6732 14.2636C91.5798 12.4845 92.2646 10.8137 93.5409 9.52971C94.8172 8.24568 96.4981 7.56498 98.2724 7.65781C100.638 7.56498 102.817 8.83355 103.891 10.9066L101.525 12.2834C100.934 10.9994 99.6576 10.2104 98.2724 10.3187C97.1829 10.3187 96.2024 10.7055 95.5175 11.4016C94.8327 12.1906 94.428 13.1807 94.428 14.2636C94.428 15.3465 94.8172 16.3366 95.5175 17.1256C96.3113 17.9146 97.2919 18.3014 98.2724 18.2085C99.6576 18.2085 100.934 17.5124 101.634 16.2438L104 17.6207C102.911 19.6937 100.654 20.9777 98.2724 20.8694C96.4981 20.8694 94.8172 20.1887 93.5409 18.9975Z" fill="#061024"/>
<path d="M54.6615 4.40904L49.3386 13.289L44.0156 4.40904H40.8561V20.5755H43.8133V9.43689L48.5448 17.4196H50.0234L54.8639 9.52971V20.5755H57.8211V4.40904H54.6615Z" fill="#061024"/>
</svg>
